<svg width="45" height="39" viewBox="0 0 45 39" fill="none" xmlns="http://www.w3.org/2000/svg">
<path d="M33.0835 24.2083V17.9467C33.0835 17.5728 33.0835 17.3858 33.0266 17.2208C32.9762 17.0748 32.8941 16.9419 32.786 16.8316C32.6638 16.7068 32.4966 16.6232 32.1622 16.456L22.6668 11.7083M6.00016 13.7917V27.9721C6.00016 28.7469 6.00016 29.1343 6.12103 29.4735C6.22789 29.7734 6.40204 30.0448 6.63012 30.2669C6.88811 30.5181 7.24031 30.6795 7.94465 31.0023L21.278 37.1134C21.7889 37.3476 22.0443 37.4647 22.3105 37.5109C22.5463 37.5518 22.7874 37.5518 23.0232 37.5109C23.2893 37.4647 23.5448 37.3476 24.0557 37.1134L37.389 31.0023C38.0934 30.6795 38.4455 30.5181 38.7035 30.2669C38.9316 30.0448 39.1058 29.7734 39.2126 29.4735C39.3335 29.1343 39.3335 28.7469 39.3335 27.9721V13.7917M1.8335 11.7083L21.9215 1.66434C22.1948 1.52769 22.3314 1.45937 22.4747 1.43247C22.6017 1.40866 22.732 1.40866 22.8589 1.43247C23.0022 1.45937 23.1389 1.52769 23.4122 1.66434L43.5002 11.7083L23.4122 21.7523C23.1389 21.889 23.0022 21.9573 22.8589 21.9842C22.732 22.008 22.6017 22.008 22.4747 21.9842C22.3314 21.9573 22.1948 21.889 21.9215 21.7523L1.8335 11.7083Z" stroke="#050038" stroke-width="2" stroke-linecap="round" stroke-linejoin="round"/>
</svg>
