<svg width="38" height="44" viewBox="0 0 38 44" fill="none" xmlns="http://www.w3.org/2000/svg">
<path d="M34.6666 23.0417V11.1667C34.6666 7.66636 34.6666 5.9162 33.9854 4.57925C33.3862 3.40323 32.43 2.4471 31.254 1.8479C29.9171 1.16669 28.1669 1.16669 24.6666 1.16669H11.3333C7.83292 1.16669 6.08276 1.16669 4.74581 1.8479C3.5698 2.4471 2.61367 3.40323 2.01446 4.57925C1.33325 5.9162 1.33325 7.66636 1.33325 11.1667V32.8334C1.33325 36.3337 1.33325 38.0838 2.01446 39.4208C2.61367 40.5968 3.5698 41.5529 4.74581 42.1521C6.08276 42.8334 7.83292 42.8334 11.3333 42.8334H17.9999M22.1666 19.9167H9.66659M13.8333 28.25H9.66659M26.3333 11.5834H9.66659M23.2083 36.5834L27.3749 40.75L36.7499 31.375" stroke="#050038" stroke-width="2" stroke-linecap="round" stroke-linejoin="round"/>
</svg>
