<svg width="45" height="44" viewBox="0 0 45 44" fill="none" xmlns="http://www.w3.org/2000/svg">
<path d="M18.1667 28.25L11.7599 34.7369C10.8662 35.6417 10.4194 36.0941 10.0353 36.126C9.70211 36.1537 9.37587 36.0198 9.15825 35.7659C8.90741 35.4734 8.90741 34.8375 8.90741 33.5657V30.3159C8.90741 29.1749 7.97307 28.3494 6.84417 28.184V28.184C4.11197 27.7838 1.9662 25.6381 1.56599 22.9058C1.5 22.4553 1.5 21.9178 1.5 20.8426V11.1667C1.5 7.66636 1.5 5.91619 2.18121 4.57925C2.78042 3.40323 3.73655 2.4471 4.91256 1.8479C6.24951 1.16669 7.99967 1.16669 11.5 1.16669H26.9167C30.417 1.16669 32.1672 1.16669 33.5041 1.8479C34.6801 2.4471 35.6362 3.40323 36.2355 4.57925C36.9167 5.91619 36.9167 7.66636 36.9167 11.1667V19.9167M36.9167 42.8334L32.3825 39.681C31.7451 39.2379 31.4264 39.0163 31.0796 38.8592C30.7718 38.7198 30.4481 38.6184 30.1158 38.5571C29.7413 38.4881 29.3532 38.4881 28.5769 38.4881H24.8333C22.4998 38.4881 21.333 38.4881 20.4417 38.034C19.6577 37.6345 19.0203 36.9971 18.6208 36.2131C18.1667 35.3218 18.1667 34.155 18.1667 31.8215V26.5834C18.1667 24.2498 18.1667 23.083 18.6208 22.1917C19.0203 21.4077 19.6577 20.7703 20.4417 20.3708C21.333 19.9167 22.4998 19.9167 24.8333 19.9167H36.5C38.8335 19.9167 40.0003 19.9167 40.8916 20.3708C41.6756 20.7703 42.3131 21.4077 42.7125 22.1917C43.1667 23.083 43.1667 24.2498 43.1667 26.5834V32.2381C43.1667 34.1795 43.1667 35.1503 42.8495 35.916C42.4266 36.9369 41.6155 37.7481 40.5945 38.1709C39.8288 38.4881 38.8581 38.4881 36.9167 38.4881V42.8334Z" stroke="#050038" stroke-width="2" stroke-linecap="round" stroke-linejoin="round"/>
</svg>
