<svg width="160" height="47" viewBox="0 0 160 47" fill="none" xmlns="http://www.w3.org/2000/svg">
<path d="M154.074 47H5.92593C2.66815 47 0 44.3985 0 41.2222V6.55555C0 3.37922 2.66815 0.777773 5.92593 0.777773H154.074C157.332 0.777773 160 3.37922 160 6.55555V41.2222C160 44.3985 157.332 47 154.074 47Z" fill="black"/>
<path d="M154.074 1.70366C156.818 1.70366 159.05 3.88044 159.05 6.55555V41.2222C159.05 43.8973 156.818 46.0741 154.074 46.0741H5.92593C3.18222 46.0741 0.949629 43.8973 0.949629 41.2222V6.55555C0.949629 3.88044 3.18222 1.70366 5.92593 1.70366H154.074ZM154.074 0.777773H5.92593C2.66815 0.777773 0 3.37922 0 6.55555V41.2222C0 44.3985 2.66815 47 5.92593 47H154.074C157.332 47 160 44.3985 160 41.2222V6.55555C160 3.37922 157.332 0.777773 154.074 0.777773Z" fill="#A6A6A6"/>
<path d="M12.3674 9.48922C12.0192 9.84455 11.8177 10.3978 11.8177 11.1142V36.6693C11.8177 37.3858 12.0192 37.939 12.3674 38.2943L12.4533 38.3723L27.1407 24.0579V23.7199L12.4533 9.40544L12.3674 9.48922Z" fill="url(#paint0_linear_840_8437)"/>
<path d="M32.031 28.8318L27.1406 24.0579V23.7199L32.0369 18.946L32.1466 19.0081L37.9451 22.2249C39.5999 23.1378 39.5999 24.64 37.9451 25.5586L32.1466 28.7696L32.031 28.8318Z" fill="url(#paint1_linear_840_8437)"/>
<path d="M32.1466 28.7697L27.1406 23.8889L12.3673 38.2943C12.9169 38.8577 13.8132 38.9256 14.8325 38.3622L32.1466 28.7697Z" fill="url(#paint2_linear_840_8437)"/>
<path d="M32.1466 19.0081L14.8325 9.41556C13.8132 8.858 12.9169 8.92589 12.3673 9.48922L27.1406 23.8889L32.1466 19.0081Z" fill="url(#paint3_linear_840_8437)"/>
<path d="M56.1985 12.615C56.1985 13.5799 55.9022 14.3527 55.3185 14.929C54.6474 15.6122 53.7733 15.956 52.7022 15.956C51.6785 15.956 50.8044 15.6064 50.0874 14.9174C49.3689 14.2183 49.0104 13.3603 49.0104 12.3333C49.0104 11.3063 49.3689 10.4483 50.0874 9.755C50.8044 9.06022 51.6785 8.71066 52.7022 8.71066C53.2119 8.71066 53.6978 8.81322 54.1615 9.00389C54.6237 9.196 55 9.456 55.2726 9.77666L54.6533 10.3862C54.1778 9.83877 53.5304 9.56866 52.7022 9.56866C51.9556 9.56866 51.3082 9.82288 50.7585 10.3357C50.2148 10.8499 49.9422 11.5158 49.9422 12.3333C49.9422 13.1509 50.2148 13.8225 50.7585 14.3368C51.3082 14.8438 51.9556 15.1038 52.7022 15.1038C53.4948 15.1038 54.1615 14.8438 54.6874 14.331C55.0341 13.9916 55.2311 13.5236 55.283 12.9256H52.7022V12.0907H56.1452C56.1867 12.2712 56.1985 12.446 56.1985 12.615Z" fill="white" stroke="white" stroke-width="0.16" stroke-miterlimit="10"/>
<path d="M61.6607 9.72031H58.4267V11.9159H61.3422V12.7508H58.4267V14.9463H61.6607V15.7971H57.5111V8.86954H61.6607V9.72031Z" fill="white" stroke="white" stroke-width="0.16" stroke-miterlimit="10"/>
<path d="M65.5156 15.7971H64.6V9.72031H62.6163V8.86954H67.5008V9.72031H65.5156V15.7971Z" fill="white" stroke="white" stroke-width="0.16" stroke-miterlimit="10"/>
<path d="M71.0356 15.7971V8.86954H71.9497V15.7971H71.0356Z" fill="white" stroke="white" stroke-width="0.16" stroke-miterlimit="10"/>
<path d="M76.0015 15.7971H75.0934V9.72031H73.1023V8.86954H77.9927V9.72031H76.0015V15.7971Z" fill="white" stroke="white" stroke-width="0.16" stroke-miterlimit="10"/>
<path d="M87.24 14.9059C86.5393 15.6064 85.6711 15.956 84.6356 15.956C83.5941 15.956 82.7259 15.6064 82.0252 14.9059C81.3259 14.2068 80.9778 13.3488 80.9778 12.3333C80.9778 11.3179 81.3259 10.4599 82.0252 9.76077C82.7259 9.06022 83.5941 8.71066 84.6356 8.71066C85.6652 8.71066 86.5333 9.06022 87.2341 9.76655C87.9393 10.4714 88.2874 11.3237 88.2874 12.3333C88.2874 13.3488 87.9393 14.2068 87.24 14.9059ZM82.7022 14.3252C83.2296 14.8438 83.8711 15.1038 84.6356 15.1038C85.3941 15.1038 86.0415 14.8438 86.563 14.3252C87.0889 13.8067 87.3556 13.1408 87.3556 12.3333C87.3556 11.5259 87.0889 10.86 86.563 10.3414C86.0415 9.82289 85.3941 9.56289 84.6356 9.56289C83.8711 9.56289 83.2296 9.82289 82.7022 10.3414C82.1763 10.86 81.9096 11.5259 81.9096 12.3333C81.9096 13.1408 82.1763 13.8067 82.7022 14.3252Z" fill="white" stroke="white" stroke-width="0.16" stroke-miterlimit="10"/>
<path d="M89.5718 15.7971V8.86954H90.6829L94.1377 14.2573H94.1777L94.1377 12.9255V8.86954H95.0518V15.7971H94.0977L90.4799 10.1435H90.4399L90.4799 11.4811V15.7971H89.5718Z" fill="white" stroke="white" stroke-width="0.16" stroke-miterlimit="10"/>
<path d="M80.7526 25.914C77.9689 25.914 75.6948 27.9796 75.6948 30.8295C75.6948 33.6562 77.9689 35.7435 80.7526 35.7435C83.5422 35.7435 85.8163 33.6562 85.8163 30.8295C85.8163 27.9796 83.5422 25.914 80.7526 25.914ZM80.7526 33.8079C79.2252 33.8079 77.9111 32.5787 77.9111 30.8295C77.9111 29.0571 79.2252 27.8496 80.7526 27.8496C82.28 27.8496 83.6 29.0571 83.6 30.8295C83.6 32.5787 82.28 33.8079 80.7526 33.8079ZM69.717 25.914C66.9274 25.914 64.6593 27.9796 64.6593 30.8295C64.6593 33.6562 66.9274 35.7435 69.717 35.7435C72.5052 35.7435 74.7748 33.6562 74.7748 30.8295C74.7748 27.9796 72.5052 25.914 69.717 25.914ZM69.717 33.8079C68.1882 33.8079 66.8696 32.5787 66.8696 30.8295C66.8696 29.0571 68.1882 27.8496 69.717 27.8496C71.2444 27.8496 72.5585 29.0571 72.5585 30.8295C72.5585 32.5787 71.2444 33.8079 69.717 33.8079ZM56.5852 27.4206V29.5092H61.7007C61.5511 30.6763 61.1511 31.5343 60.5378 32.1323C59.7911 32.8546 58.6282 33.6562 56.5852 33.6562C53.437 33.6562 50.9719 31.179 50.9719 28.1096C50.9719 25.0401 53.437 22.5629 56.5852 22.5629C58.2874 22.5629 59.5259 23.2115 60.44 24.0521L61.9496 22.5802C60.6711 21.39 58.9704 20.4757 56.5852 20.4757C52.2682 20.4757 48.64 23.9005 48.64 28.1096C48.64 32.3187 52.2682 35.7435 56.5852 35.7435C58.9185 35.7435 60.6711 34.9981 62.0489 33.5999C63.4607 32.2233 63.9007 30.2878 63.9007 28.7249C63.9007 28.2396 63.8593 27.7932 63.7852 27.4206H56.5852ZM110.283 29.0398C109.867 27.9406 108.582 25.914 105.966 25.914C103.373 25.914 101.215 27.9059 101.215 30.8295C101.215 33.5826 103.351 35.7435 106.215 35.7435C108.53 35.7435 109.867 34.3669 110.416 33.5652L108.698 32.4487C108.124 33.2662 107.344 33.8079 106.215 33.8079C105.093 33.8079 104.289 33.3067 103.773 32.3187L110.516 29.5988L110.283 29.0398ZM103.409 30.6763C103.351 28.7812 104.919 27.8106 106.041 27.8106C106.921 27.8106 107.668 28.2396 107.917 28.8535L103.409 30.6763ZM97.9289 35.4445H100.145V21H97.9289V35.4445ZM94.2993 27.0089H94.2252C93.7274 26.434 92.7778 25.914 91.5748 25.914C89.0504 25.914 86.7422 28.0749 86.7422 30.8453C86.7422 33.5999 89.0504 35.7435 91.5748 35.7435C92.7778 35.7435 93.7274 35.2191 94.2252 34.6269H94.2993V35.3318C94.2993 37.211 93.2696 38.2207 91.6089 38.2207C90.2548 38.2207 89.4148 37.2673 89.0681 36.4657L87.1407 37.25C87.6963 38.5529 89.1674 40.1562 91.6089 40.1562C94.2074 40.1562 96.4 38.6656 96.4 35.0386V26.213H94.2993V27.0089ZM91.7644 33.8079C90.237 33.8079 88.9585 32.5613 88.9585 30.8453C88.9585 29.1135 90.237 27.8496 91.7644 27.8496C93.2696 27.8496 94.4563 29.1135 94.4563 30.8453C94.4563 32.5613 93.2696 33.8079 91.7644 33.8079ZM120.659 21H115.359V35.4445H117.569V29.9715H120.659C123.114 29.9715 125.521 28.2396 125.521 25.485C125.521 22.7319 123.108 21 120.659 21ZM120.717 27.9622H117.569V23.0092H120.717C122.367 23.0092 123.31 24.3453 123.31 25.485C123.31 26.603 122.367 27.9622 120.717 27.9622ZM134.381 25.8866C132.784 25.8866 131.123 26.5741 130.44 28.098L132.401 28.8997C132.824 28.098 133.6 27.838 134.421 27.838C135.567 27.838 136.73 28.5097 136.748 29.6956V29.8472C136.348 29.6219 135.492 29.2882 134.438 29.2882C132.326 29.2882 130.173 30.4221 130.173 32.5382C130.173 34.4738 131.904 35.7203 133.849 35.7203C135.336 35.7203 136.157 35.066 136.673 34.3048H136.748V35.4213H138.883V29.8805C138.883 27.3195 136.921 25.8866 134.381 25.8866ZM134.114 33.8021C133.391 33.8021 132.384 33.4526 132.384 32.5787C132.384 31.4607 133.64 31.0317 134.727 31.0317C135.701 31.0317 136.157 31.2411 136.748 31.517C136.575 32.8546 135.394 33.8021 134.114 33.8021ZM146.661 26.2029L144.12 32.4646H144.044L141.418 26.2029H139.034L142.981 34.9533L140.729 39.8226H143.038L149.12 26.2029H146.661ZM126.736 35.4445H128.953V21H126.736V35.4445Z" fill="white"/>
<defs>
<linearGradient id="paint0_linear_840_8437" x1="25.8366" y1="36.9355" x2="6.44986" y2="17.0516" gradientUnits="userSpaceOnUse">
<stop stop-color="#00A0FF"/>
<stop offset="0.0066" stop-color="#00A1FF"/>
<stop offset="0.2601" stop-color="#00BEFF"/>
<stop offset="0.5122" stop-color="#00D2FF"/>
<stop offset="0.7604" stop-color="#00DFFF"/>
<stop offset="1" stop-color="#00E3FF"/>
</linearGradient>
<linearGradient id="paint1_linear_840_8437" x1="40.0999" y1="23.8873" x2="11.4221" y2="23.8873" gradientUnits="userSpaceOnUse">
<stop stop-color="#FFE000"/>
<stop offset="0.4087" stop-color="#FFBD00"/>
<stop offset="0.7754" stop-color="#FFA500"/>
<stop offset="1" stop-color="#FF9C00"/>
</linearGradient>
<linearGradient id="paint2_linear_840_8437" x1="29.4245" y1="21.2356" x2="3.13445" y2="-5.72854" gradientUnits="userSpaceOnUse">
<stop stop-color="#FF3A44"/>
<stop offset="1" stop-color="#C31162"/>
</linearGradient>
<linearGradient id="paint3_linear_840_8437" x1="8.64855" y1="46.7964" x2="20.3882" y2="34.7558" gradientUnits="userSpaceOnUse">
<stop stop-color="#32A071"/>
<stop offset="0.0685" stop-color="#2DA771"/>
<stop offset="0.4762" stop-color="#15CF74"/>
<stop offset="0.8009" stop-color="#06E775"/>
<stop offset="1" stop-color="#00F076"/>
</linearGradient>
</defs>
</svg>
