<svg width="33" height="33" viewBox="0 0 33 33" fill="none" xmlns="http://www.w3.org/2000/svg"><path d="M13.6 16.5a3 3 0 1 1 5.8 0 3 3 0 0 1-5.8 0Zm-1.6 0a4.5 4.5 0 1 0 9 0 4.5 4.5 0 0 0-9 0Zm8.1-4.7a1 1 0 1 0 2.1 0 1 1 0 0 0-2 0ZM13 23.6c-.9 0-1.3-.2-1.7-.3a2.7 2.7 0 0 1-1.7-1.7c0-.3-.2-.7-.2-1.6a60.3 60.3 0 0 1 .3-8.7 2.7 2.7 0 0 1 1.7-1.7c.3 0 .7-.2 1.6-.2a60.4 60.4 0 0 1 8.7.3c.4.1.7.3 1 .6.3.3.5.6.6 1 .1.4.3.8.3 1.7a60.4 60.4 0 0 1-.3 8.7c-.1.4-.3.7-.6 1-.3.3-.6.5-1 .6-.4.1-.8.3-1.7.3a60.5 60.5 0 0 1-7 0Zm-.1-15.8c-1 0-1.6.2-2.1.4a4.3 4.3 0 0 0-2.6 2.6c-.2.5-.3 1.2-.4 2.1a61.3 61.3 0 0 0 .4 9.3 4.3 4.3 0 0 0 2.6 2.6c.5.2 1.2.3 2.1.4a62 62 0 0 0 9.3-.4 4.3 4.3 0 0 0 2.6-2.6c.2-.5.3-1.2.4-2.1a62.2 62.2 0 0 0-.4-9.3 4.3 4.3 0 0 0-2.6-2.6l-2-.4a62 62 0 0 0-7.3 0Z" fill="url(#paint0_radial_2_3)"/><path d="M13.6 16.5a3 3 0 1 1 5.8 0 3 3 0 0 1-5.8 0Zm-1.6 0a4.5 4.5 0 1 0 9 0 4.5 4.5 0 0 0-9 0Zm8.1-4.7a1 1 0 1 0 2.1 0 1 1 0 0 0-2 0ZM13 23.6c-.9 0-1.3-.2-1.7-.3a2.7 2.7 0 0 1-1.7-1.7c0-.3-.2-.7-.2-1.6a60.3 60.3 0 0 1 .3-8.7 2.7 2.7 0 0 1 1.7-1.7c.3 0 .7-.2 1.6-.2a60.4 60.4 0 0 1 8.7.3c.4.1.7.3 1 .6.3.3.5.6.6 1 .1.4.3.8.3 1.7a60.4 60.4 0 0 1-.3 8.7c-.1.4-.3.7-.6 1-.3.3-.6.5-1 .6-.4.1-.8.3-1.7.3a60.5 60.5 0 0 1-7 0Zm-.1-15.8c-1 0-1.6.2-2.1.4a4.3 4.3 0 0 0-2.6 2.6c-.2.5-.3 1.2-.4 2.1a61.3 61.3 0 0 0 .4 9.3 4.3 4.3 0 0 0 2.6 2.6c.5.2 1.2.3 2.1.4a62 62 0 0 0 9.3-.4 4.3 4.3 0 0 0 2.6-2.6c.2-.5.3-1.2.4-2.1a62.2 62.2 0 0 0-.4-9.3 4.3 4.3 0 0 0-2.6-2.6l-2-.4a62 62 0 0 0-7.3 0Z" fill="url(#paint1_radial_2_3)"/><defs><radialGradient id="paint0_radial_2_3" cx="0" cy="0" r="1" gradientUnits="userSpaceOnUse" gradientTransform="matrix(23 0 0 23 10 25.3)"><stop offset=".1" stop-color="#FA8F21"/><stop offset=".8" stop-color="#D82D7E"/></radialGradient><radialGradient id="paint1_radial_2_3" cx="0" cy="0" r="1" gradientUnits="userSpaceOnUse" gradientTransform="matrix(18 0 0 18 18.4 26.1)"><stop offset=".6" stop-color="#8C3AAA" stop-opacity="0"/><stop offset="1" stop-color="#8C3AAA"/></radialGradient></defs></svg>