<svg width="423" height="156" viewBox="0 0 423 156" fill="none" xmlns="http://www.w3.org/2000/svg"><g clip-path="url(#clip0_2_610)" fill="#fff"><path fill-rule="evenodd" clip-rule="evenodd" d="M274.7 44.3a92 92 0 0 0 6.2 2c-1.1.8-2 2.5-2.7 4-1.5 3.7-1.3 2.5-2.8 4.5-.6-.2-7-6.4-20.9-8-4.8-.5-7.6.3-8.8.2-1-9.5-6.4-14.9-12.5-20.5.6-2 2.4-3.8 3.4-5.6 1-1.6 1-3.3.3-5a72.5 72.5 0 0 0 21.6 20.5 86.2 86.2 0 0 0 16.2 7.9Z"/><path fill-rule="evenodd" clip-rule="evenodd" d="m292.2 48.6-1-.3c-5.4-1.5-10.8-3.2-16-5.4A96.9 96.9 0 0 1 235 12.3c-.4-.5-.9-1-1.3-1.7-2.2-2.7-4.7-5-5.5-6.8h.6c.7.3 2.4.6 3.1.8 14.2 3 29 4 40.7 13.3 8.8 7 16.6 17.8 23 27.4l1.5 2c3.1 4-1 2.4-4.9 1.3ZM303.4 60c0 5.4.8 6.6.2 12-.6-.4-.8-1-1.2-1.7l-2.7-5.2c-.8-1.6-3.7-4.5-6.3-4.2 1 2.9 5.8 8.4 5.5 14l-.3 2.6c-8.7-1.2-5.4-12-13-12.3 0 2.5 4.2 9.2 4.2 21.7 0 2.1-1.3 2.9 2.9 4.7 1.4.7 4.8 2 6.4 1.4l4.2-6c10.5-14.6 4.9-15.7 5.1-24.7 0-1.7.2-4.6-1.5-5.3-1.3.6-1.1 1.7-1 3.4 0 3.2.8 11.6-1.2 13.6-.5.5-.5.3-.6.2-.4-1.4.7-.1 1-4.3.4-4.2.2-6.4.2-10.2 0-1.5 1.1-3.4-1-3.8-.7 1-1 2.3-1 4.1ZM133 81.6l4.8-1.4.2-5 2.8 4.1 4.8-1.4-3 4 2.8 4-4.7-1.6-3 4v-5l-4.6-1.7ZM136.3 51.7l7 1.7 3.7-6.1.6 7 7 1.8-6.7 2.7.6 7-4.7-5.3-6.6 2.7 3.8-6-4.7-5.5ZM160 22.6l7.4 7 9-4.8L172 34l7.4 7-10.1-1.3-4.4 9.2-1.9-10-10-1.4 8.9-4.8-1.9-10ZM204.3.5l4.1 14 14.6.3-12 8.3 4.1 14-11.5-9-12 8.3 4.8-13.7-11.5-8.9 14.6.4L204.3.5Z"/><path d="M37.5 122.6v1.3c-.2 11.6-5.8 17.9-18.4 17.9-13.3 0-18.6-7-18.6-19.6V105c0-12.8 5.4-19.8 18.6-19.8 12.3 0 18.3 6.3 18.3 18v.7H26.7v-1c0-5.7-2.5-8.3-7.6-8.3-6.5 0-8.2 3.7-8.2 10.7v16.3c0 7 1.5 10.7 8.2 10.7 5.3 0 7.6-2.5 7.8-8.4v-1.4h10.6ZM74.1 113.8v11c0 12-5.2 17-16.4 17s-16.4-5-16.4-17v-11c0-11.8 5.2-17 16.4-17s16.4 5.2 16.4 17Zm-23 11.1c0 6.5 1.7 8.4 6.6 8.4 5 0 6.7-2 6.7-8.4v-11.1c0-6.5-1.7-8.4-6.7-8.4s-6.7 2-6.7 8.4v11.1ZM95 141.4c-12.5 1.2-15.5-3.8-15.5-15.9v-40h9.7V126c0 5.9 1.5 7 5.8 6.7v8.7ZM116.6 141.4c-12.5 1.2-15.5-3.8-15.5-15.9v-40h9.6V126c0 5.9 1.5 7 6 6.7v8.7ZM153.2 128c-.3 9-4.6 13.8-15.7 13.8-11 0-16.4-5-16.4-17v-11.3c0-10.7 5.3-16.6 16.4-16.6 11 0 16 5 16 16.4v9h-23v3.5c0 5.3 2 8 7 8s6.5-2 6.7-5.8h9Zm-22.6-14.4v1.2h13.8v-1.5c0-5.7-1.9-8.4-6.9-8.4s-7 2.5-7 8.7ZM180.8 139.3v-2.8a14 14 0 0 1-9.2 3c-9.2 0-13.8-6-13.8-17v-9.2c0-11.4 6.3-16.4 14.1-16.4 4.2 0 7 1.1 9 3l.3-2.2h9.3v40.8c0 12.5-6.2 17-16.5 17-11.2 0-15.2-5-15.4-13h9.3c.2 3.2 1.8 5.2 6.4 5.2 4.6 0 6.5-2.3 6.5-8.4Zm0-26.2c0-5.7-2.8-7.7-6.7-7.7-4.1 0-6.6 2.2-6.6 8.4v8.8c0 5.8 1.9 8.3 6.6 8.3 4.3 0 6.7-2.1 6.7-7.1V113ZM228.1 128c-.2 9-4.6 13.8-15.6 13.8-11.1 0-16.5-5-16.5-17v-11.3c0-10.7 5.3-16.6 16.4-16.6 11 0 16.1 5 16.1 16.4v9h-23v3.5c0 5.3 2 8 6.9 8 5 0 6.5-2 6.8-5.8h9Zm-22.6-14.4v1.2h13.8v-1.5c0-5.7-1.9-8.4-6.8-8.4-5 0-7 2.5-7 8.7ZM233.9 86.2h16c14.1 0 19.8 6.7 19.8 20.2V121c0 13.3-5.7 20-19.8 20h-16V86.1Zm9.8 8.8v37.2h6.2c7.2 0 9.4-3.3 9.4-10.5v-16c0-7.6-2.2-10.7-9.4-10.7h-6.2ZM307 128c-.3 9-4.6 13.8-15.6 13.8-11.1 0-16.5-5-16.5-17v-11.3c0-10.7 5.3-16.6 16.4-16.6 11 0 16 5 16 16.4v9h-23v3.5c0 5.3 2 8 7 8s6.5-2 6.7-5.8h9Zm-22.6-14.4v1.2h13.8v-1.5c0-5.7-1.9-8.4-6.8-8.4-5 0-7 2.5-7 8.7ZM333.3 117.4l16 23.5h-11.9l-11.9-18.7h-3.4v18.7h-9.6V85.5h9.7v28.2h3.2l10.9-16h11.5l-14.5 19.7ZM361.9 100c2.2-2 5.5-3.1 9.6-3.1 9.3 0 13.1 5 13.1 15.6v28.4H375v-27.4c0-5.7-1.6-8-6.4-8-4 0-6.6 2.2-6.6 7.2v28.2h-9.7V85.5h9.7v14.4ZM422.5 113.8v11c0 12-5.2 17-16.4 17s-16.4-5-16.4-17v-11c0-11.8 5.2-17 16.4-17s16.4 5.2 16.4 17Zm-23 11.1c0 6.5 1.6 8.4 6.6 8.4s6.7-2 6.7-8.4v-11.1c0-6.5-1.7-8.4-6.7-8.4s-6.7 2-6.7 8.4v11.1ZM291.5 56H290V49l1.5.2v7Z"/><path d="M292.2 54.3h-3v4.8h3v-4.8Z"/></g><defs><clipPath id="clip0_2_610"><path fill="#fff" d="M.5.5h422v155H.5z"/></clipPath></defs></svg>