<svg width="15" height="15" viewBox="0 0 15 15" fill="none" xmlns="http://www.w3.org/2000/svg"><g clip-path="url(#clip0_3_803)"><path d="M10.6 15a7.73 7.73 0 0 1-2.79-.83 14.9 14.9 0 0 1-4.96-3.88A13.65 13.65 0 0 1 .42 6.25a5.54 5.54 0 0 1-.4-2.35c.04-.56.29-1.08.69-1.47l1.08-1.09c.29-.3.67-.46 1.08-.47a1.5 1.5 0 0 1 1.06.46l.6.6.3.3.87.86a1.45 1.45 0 0 1 0 2.19l-.27.27-.73.72c.22.48.51.94.85 1.35.74.93 1.62 1.73 2.6 2.38l.32.16.25.13 1-1a1.53 1.53 0 0 1 1.08-.49 1.47 1.47 0 0 1 1.07.5l1.74 1.74a1.52 1.52 0 0 1 .5 1.08c-.02.42-.19.81-.49 1.1l-.41.41c-.2.18-.38.37-.55.57l-.02.02a2.39 2.39 0 0 1-1.83.78h-.2ZM2.4 1.94 1.3 3.03c-.26.25-.41.58-.44.94-.03.68.09 1.35.36 1.98.53 1.39 1.3 2.67 2.28 3.8a14.07 14.07 0 0 0 4.68 3.66c.77.4 1.6.65 2.47.74h.14a1.53 1.53 0 0 0 1.2-.5c.19-.22.4-.43.6-.63l.4-.39a.63.63 0 0 0 0-1L11.24 9.9v-.01a.64.64 0 0 0-.46-.23.72.72 0 0 0-.48.24l-1.09 1.08a.68.68 0 0 1-.48.22.7.7 0 0 1-.35-.1 3.6 3.6 0 0 0-.31-.17 4.28 4.28 0 0 1-.4-.21 11.64 11.64 0 0 1-2.81-2.56 6.92 6.92 0 0 1-1.02-1.67l-.01-.03A.64.64 0 0 1 4 5.74l.02-.01c.27-.25.53-.5.8-.78l.27-.27a.6.6 0 0 0 0-.98l-.86-.86-.3-.31c-.2-.2-.38-.39-.58-.57a.68.68 0 0 0-.47-.23.73.73 0 0 0-.49.22Zm9.04 4.94A4.08 4.08 0 0 0 8.1 3.57a.42.42 0 0 1-.35-.5.43.43 0 0 1 .5-.34 4.93 4.93 0 0 1 4.02 4.01.43.43 0 0 1-.85.15Zm2.72-.13A7.25 7.25 0 0 0 8.23.85.43.43 0 0 1 7.94.2a.42.42 0 0 1 .43-.2A8.11 8.11 0 0 1 15 6.63a.42.42 0 0 1-.42.5.43.43 0 0 1-.42-.36Z" fill="#F5A041"/></g><defs><clipPath id="clip0_3_803"><path fill="#fff" d="M0 0h15v15H0z"/></clipPath></defs></svg>