<svg width="285" height="264" viewBox="0 0 285 264" fill="none" xmlns="http://www.w3.org/2000/svg">
<path d="M74.2665 238.388H141.223H201.383C216.644 238.388 230.499 229.475 236.827 215.587L256.909 171.511C264.003 155.94 260.106 137.564 247.303 126.213L226.748 107.991C218.409 100.598 213.636 89.9877 213.636 78.8436V56.3704C213.636 26.8688 179.422 10.5566 156.502 29.1307C149.045 35.1743 139.436 37.8959 129.917 36.6606L96.2475 32.2912C69.9259 28.8753 47.972 52.2119 52.9863 78.2771L56.6434 97.2874C60.0227 114.853 50.8884 132.439 34.5746 139.776C10.2814 150.7 4.09776 182.369 22.4967 201.631L46.1016 226.342C53.4507 234.036 63.6271 238.388 74.2665 238.388Z" fill="#E7E8FF"/>
<path d="M0.786865 6.82272C0.786865 3.92378 3.13692 1.57373 6.03586 1.57373H116.698C119.597 1.57373 121.947 3.92379 121.947 6.82273V108.044C121.947 110.943 119.597 113.293 116.698 113.293H6.03586C3.13692 113.293 0.786865 110.943 0.786865 108.044V6.82272Z" fill="white"/>
<path fill-rule="evenodd" clip-rule="evenodd" d="M0 6.82286C0 3.48941 2.7023 0.787109 6.03575 0.787109H116.698C120.032 0.787109 122.734 3.48941 122.734 6.82286V108.044C122.734 111.378 120.032 114.08 116.698 114.08H6.03575C2.7023 114.08 0 111.378 0 108.044V6.82286ZM6.03575 2.36062C3.57133 2.36062 1.57351 4.35843 1.57351 6.82286V108.044C1.57351 110.509 3.57133 112.507 6.03575 112.507H116.698C119.163 112.507 121.161 110.509 121.161 108.044V6.82286C121.161 4.35844 119.163 2.36062 116.698 2.36062H6.03575Z" fill="#032068"/>
<path d="M0.786865 6.82273C0.786865 3.92379 3.13692 1.57373 6.03586 1.57373H116.698C119.597 1.57373 121.947 3.92379 121.947 6.82273V19.6691H0.786865V6.82273Z" fill="#032068"/>
<path d="M17.3928 10.7502C17.3928 12.9223 15.632 14.6831 13.46 14.6831C11.2879 14.6831 9.5271 12.9223 9.5271 10.7502C9.5271 8.57818 11.2879 6.81738 13.46 6.81738C15.632 6.81738 17.3928 8.57818 17.3928 10.7502Z" fill="white"/>
<path d="M30.5034 10.7502C30.5034 12.9223 28.7426 14.6831 26.5706 14.6831C24.3985 14.6831 22.6377 12.9223 22.6377 10.7502C22.6377 8.57818 24.3985 6.81738 26.5706 6.81738C28.7426 6.81738 30.5034 8.57818 30.5034 10.7502Z" fill="white"/>
<path d="M43.6108 10.7502C43.6108 12.9223 41.85 14.6831 39.678 14.6831C37.5059 14.6831 35.7451 12.9223 35.7451 10.7502C35.7451 8.57818 37.5059 6.81738 39.678 6.81738C41.85 6.81738 43.6108 8.57818 43.6108 10.7502Z" fill="white"/>
<path d="M161.285 6.03562C161.285 3.13668 163.635 0.786621 166.534 0.786621H277.196C280.095 0.786621 282.445 3.13668 282.445 6.03562V107.257C282.445 110.156 280.095 112.506 277.196 112.506H166.534C163.635 112.506 161.285 110.156 161.285 107.257V6.03562Z" fill="white"/>
<path fill-rule="evenodd" clip-rule="evenodd" d="M160.498 6.03575C160.498 2.7023 163.2 0 166.534 0H277.196C280.53 0 283.232 2.7023 283.232 6.03575V107.257C283.232 110.591 280.53 113.293 277.196 113.293H166.534C163.2 113.293 160.498 110.591 160.498 107.257V6.03575ZM166.534 1.57351C164.069 1.57351 162.072 3.57133 162.072 6.03575V107.257C162.072 109.722 164.069 111.719 166.534 111.719H277.196C279.661 111.719 281.659 109.722 281.659 107.257V6.03575C281.659 3.57133 279.661 1.57351 277.196 1.57351H166.534Z" fill="#032068"/>
<path d="M161.285 6.03562C161.285 3.13668 163.635 0.786621 166.534 0.786621H277.196C280.095 0.786621 282.445 3.13668 282.445 6.03562V18.882H161.285V6.03562Z" fill="#032068"/>
<path d="M177.891 9.96313C177.891 12.1352 176.13 13.896 173.958 13.896C171.786 13.896 170.025 12.1352 170.025 9.96313C170.025 7.79107 171.786 6.03027 173.958 6.03027C176.13 6.03027 177.891 7.79107 177.891 9.96313Z" fill="white"/>
<path d="M191.001 9.96313C191.001 12.1352 189.241 13.896 187.069 13.896C184.897 13.896 183.136 12.1352 183.136 9.96313C183.136 7.79107 184.897 6.03027 187.069 6.03027C189.241 6.03027 191.001 7.79107 191.001 9.96313Z" fill="white"/>
<path d="M204.109 9.96313C204.109 12.1352 202.348 13.896 200.176 13.896C198.004 13.896 196.243 12.1352 196.243 9.96313C196.243 7.79107 198.004 6.03027 200.176 6.03027C202.348 6.03027 204.109 7.79107 204.109 9.96313Z" fill="white"/>
<path d="M0.786865 139.785C0.786865 136.886 3.13692 134.536 6.03586 134.536H116.698C119.597 134.536 121.947 136.886 121.947 139.785V241.006C121.947 243.905 119.597 246.255 116.698 246.255H6.03586C3.13692 246.255 0.786865 243.905 0.786865 241.006V139.785Z" fill="white"/>
<path fill-rule="evenodd" clip-rule="evenodd" d="M0 139.785C0 136.451 2.7023 133.749 6.03575 133.749H116.698C120.032 133.749 122.734 136.451 122.734 139.785V241.006C122.734 244.34 120.032 247.042 116.698 247.042H6.03575C2.7023 247.042 0 244.34 0 241.006V139.785ZM6.03575 135.323C3.57133 135.323 1.57351 137.32 1.57351 139.785V241.006C1.57351 243.471 3.57133 245.468 6.03575 245.468H116.698C119.163 245.468 121.161 243.471 121.161 241.006V139.785C121.161 137.32 119.163 135.323 116.698 135.323H6.03575Z" fill="#032068"/>
<path d="M0.786865 139.785C0.786865 136.886 3.13692 134.536 6.03586 134.536H116.698C119.597 134.536 121.947 136.886 121.947 139.785V152.631H0.786865V139.785Z" fill="#032068"/>
<path d="M17.3928 143.712C17.3928 145.884 15.632 147.645 13.46 147.645C11.2879 147.645 9.5271 145.884 9.5271 143.712C9.5271 141.54 11.2879 139.779 13.46 139.779C15.632 139.779 17.3928 141.54 17.3928 143.712Z" fill="white"/>
<path d="M30.5034 143.712C30.5034 145.884 28.7426 147.645 26.5706 147.645C24.3985 147.645 22.6377 145.884 22.6377 143.712C22.6377 141.54 24.3985 139.779 26.5706 139.779C28.7426 139.779 30.5034 141.54 30.5034 143.712Z" fill="white"/>
<path d="M43.6108 143.712C43.6108 145.884 41.85 147.645 39.678 147.645C37.5059 147.645 35.7451 145.884 35.7451 143.712C35.7451 141.54 37.5059 139.779 39.678 139.779C41.85 139.779 43.6108 141.54 43.6108 143.712Z" fill="white"/>
<path d="M162.072 139.785C162.072 136.886 164.422 134.536 167.321 134.536H277.983C280.882 134.536 283.232 136.886 283.232 139.785V241.006C283.232 243.905 280.882 246.255 277.983 246.255H167.321C164.422 246.255 162.072 243.905 162.072 241.006V139.785Z" fill="white"/>
<path fill-rule="evenodd" clip-rule="evenodd" d="M161.285 139.785C161.285 136.451 163.987 133.749 167.321 133.749H277.983C281.317 133.749 284.019 136.451 284.019 139.785V241.006C284.019 244.34 281.317 247.042 277.983 247.042H167.321C163.987 247.042 161.285 244.34 161.285 241.006V139.785ZM167.321 135.323C164.856 135.323 162.859 137.32 162.859 139.785V241.006C162.859 243.471 164.856 245.468 167.321 245.468H277.983C280.448 245.468 282.446 243.471 282.446 241.006V139.785C282.446 137.32 280.448 135.323 277.983 135.323H167.321Z" fill="#032068"/>
<path d="M162.072 139.785C162.072 136.886 164.422 134.536 167.321 134.536H277.983C280.882 134.536 283.232 136.886 283.232 139.785V152.631H162.072V139.785Z" fill="#032068"/>
<path d="M178.678 143.712C178.678 145.884 176.917 147.645 174.745 147.645C172.573 147.645 170.812 145.884 170.812 143.712C170.812 141.54 172.573 139.779 174.745 139.779C176.917 139.779 178.678 141.54 178.678 143.712Z" fill="white"/>
<path d="M191.789 143.712C191.789 145.884 190.028 147.645 187.856 147.645C185.684 147.645 183.923 145.884 183.923 143.712C183.923 141.54 185.684 139.779 187.856 139.779C190.028 139.779 191.789 141.54 191.789 143.712Z" fill="white"/>
<path d="M204.896 143.712C204.896 145.884 203.135 147.645 200.963 147.645C198.791 147.645 197.03 145.884 197.03 143.712C197.03 141.54 198.791 139.779 200.963 139.779C203.135 139.779 204.896 141.54 204.896 143.712Z" fill="white"/>
<path d="M213.341 42.1182C207.655 43.2546 202.443 48.984 200.548 51.7067L206.944 57.3888L210.853 53.4824C212.275 54.0506 215 53.7191 216.184 53.4824C217.606 49.2208 219.027 40.9818 213.341 42.1182Z" fill="#EFCB96"/>
<path d="M229.807 30.1107C238.757 36.436 234.995 47.6808 233.309 52.0383L234.048 60.9298C233.282 63.729 230.507 69.3274 225.526 69.3274C220.545 69.3274 218.262 64.5483 217.743 62.1587L218.521 55.4117C212.684 53.3033 212.295 44.8696 212.684 38.1227C213.146 30.1106 221.923 24.5391 229.807 30.1107Z" fill="#EFCB96"/>
<path d="M233.028 49.8338L233.804 57.4797C234.062 56.9133 234.656 55.2709 234.967 53.232C235.354 50.6834 241.557 40.9137 239.619 33.6926C238.068 27.9157 233.804 28.1706 231.865 29.0201C230.702 26.8962 223.724 19.6752 213.644 20.5247C203.564 21.3742 202.401 35.8164 210.542 37.9403C217.055 39.6394 224.37 38.6482 227.213 37.9403C227.471 38.5066 228.221 40.4039 229.151 43.4623C230.314 47.2852 230.314 48.1347 230.702 45.5861C231.09 43.0375 232.641 38.365 234.579 43.0375C236.13 46.7755 234.191 49.1259 233.028 49.8338Z" fill="#032068"/>
<path d="M227.397 55.2583C224.73 56.828 220.605 55.9123 218.876 55.2583L218.506 58.0053C222.359 58.9471 226.039 56.5664 227.397 55.2583Z" fill="#032068"/>
<path d="M215.472 53.4826C212.913 50.9257 212.511 45.0779 212.629 42.4736C211.208 46.7352 212.748 51.8254 213.695 53.8378C214.548 53.8378 215.235 53.601 215.472 53.4826Z" fill="#032068"/>
<path d="M225.066 63.4263C219.514 63.4263 216.81 60.3542 215.982 58.496C215.878 58.2629 215.654 58.0985 215.399 58.1037C212.753 58.1571 210.317 58.6911 209.102 59.046C208.869 59.114 208.617 59.0436 208.46 58.8591C205.761 55.689 200.5 49.7711 199.124 49.2211C197.347 48.5108 188.818 53.1275 173.182 67.6878C157.545 82.2481 157.901 91.4815 163.587 99.6495C167.891 105.832 178.473 104.66 184.015 103.112C184.434 102.995 184.843 103.342 184.785 103.773C184.487 106.017 184.155 108.637 183.816 111.451C183.774 111.804 184.049 112.115 184.405 112.115H276.986C277.365 112.115 277.647 111.764 277.562 111.394C274.649 98.7382 269.171 84.9893 264.869 76.2109C258.177 62.5587 242.28 58.4925 234.742 58.1172C234.48 58.1042 234.252 58.27 234.145 58.5092C233.311 60.3688 230.606 63.4263 225.066 63.4263Z" fill="#F4AD5E"/>
<path d="M221.73 92.4643L210.133 90.5328C209.768 90.472 209.437 90.7566 209.443 91.1266L209.744 111.139C209.749 111.463 210.013 111.723 210.337 111.723H221.633C221.96 111.723 222.226 111.457 222.226 111.13V93.0491C222.226 92.7593 222.016 92.5119 221.73 92.4643Z" fill="white" stroke="#032068" stroke-width="1.18588"/>
<path d="M248.167 97.1636C249.47 100.952 252.219 108.812 252.787 109.948C253.068 110.508 254.684 111.494 256.605 112.506H253.917C247.001 110.157 237.695 106.914 232.175 104.976C234.663 104.976 249.234 109.238 249.589 108.528C249.873 107.96 248.76 100.715 248.167 97.1636Z" fill="#032068"/>
<path d="M226.821 103.275C228.267 105.519 229.834 106.548 230.436 106.782L228.763 112.115H217.058C216.434 111.899 215.829 111.646 215.254 111.342C211.278 109.237 212 99.0654 214.169 99.767C215.904 100.328 220.194 102.105 222.122 102.924V98.0132C224.652 99.0654 225.014 100.468 226.821 103.275Z" fill="#EFCB96"/>
<path d="M160.035 87.5752C169.986 89.848 176.264 99.6496 178.159 104.266C176.145 105.095 169.275 105.19 165.01 101.78C159.324 97.2347 159.324 90.1795 160.035 87.5752Z" fill="#032068"/>
<path d="M183.845 93.257C193.795 85.3021 204.812 67.2141 209.076 59.1646C206.352 62.8342 200.263 71.0259 197.704 74.4351C195.145 77.8444 187.398 88.4035 183.845 93.257Z" fill="#032068"/>
<ellipse rx="6.39676" ry="6.39233" transform="matrix(-1 0 0 1 232.887 44.6047)" fill="#F4AD5E"/>
<path d="M226.845 24.0068C234.805 24.0068 235.019 33.9505 234.308 39.2774H232.175C232.887 32.1748 231.109 27.9133 230.043 26.8479L226.845 24.0068Z" fill="#F4AD5E"/>
<path d="M68.2845 53.8279L70.1613 60.5748C71.0997 63.9483 68.2845 67.9352 60.4647 67.9352C54.2087 67.9352 53.2704 62.2105 53.5832 59.3481L55.1472 51.6811C53.5832 50.1477 52.332 49.2277 52.332 41.8673C52.332 32.6669 57.3367 29.2935 63.2798 29.2935C69.2229 29.2935 74.2276 34.1951 74.2278 43.0941C74.228 50.7611 70.057 53.2145 68.2845 53.8279Z" fill="#EFCB96"/>
<path d="M83.1275 47.102C87.7816 51.9043 87.1573 63.7266 86.4428 67.3283C77.6904 60.9066 72.2233 59.4732 70.0799 59.7734L68.1241 53.405C71.4922 52.5046 73.6355 49.5031 73.9417 42.5998C74.1867 37.0772 71.3902 33.2954 69.9613 32.0948C65.0622 31.7946 62.6127 37.7975 61.0818 40.1987C59.857 42.1196 58.9385 41.7994 58.6323 41.3992C57.1013 37.7975 54.3456 37.4974 53.7332 41.3992C53.2433 44.5207 55.5704 46.1015 56.7951 46.5017L53.7174 59.7734C46.8679 60.1511 38.8769 63.9286 36.5938 65.4396C35.6752 55.835 44.5476 48.6027 46.9971 42.5998C49.4466 36.597 46.0785 33.5955 48.528 29.6937C50.3436 26.8017 53.7332 26.3921 55.8766 25.7918C58.0199 25.1915 59.2446 22.7904 61.6942 21.5898C65.9808 20.0891 70.0633 23.7908 71.186 26.3921C71.9005 26.292 73.9417 26.5722 76.3912 28.4931C83.4336 33.2954 77.3099 41.0991 83.1275 47.102Z" fill="#032068"/>
<path d="M62.0618 53.4443C65.7111 54.2897 67.8398 53.9727 68.448 53.7085L69.3604 56.6145C65.4678 57.0371 62.8727 54.6772 62.0618 53.4443Z" fill="#032068"/>
<path d="M61.2438 65.1574C67.3857 65.1574 70.2681 61.4136 70.9415 59.5417C82.6595 59.5417 92.3574 67.5641 96.8022 73.1798C100.408 77.736 111.994 98.1349 114.079 112.097H8.65405C9.62295 106.06 11.3189 99.118 13.9675 91.2303C22.6954 65.2376 43.1953 59.2743 52.3543 59.5417C52.7583 61.4136 55.102 65.1574 61.2438 65.1574Z" fill="#F4AD5E"/>
<path d="M38.6151 109.281C39.8274 109.281 56.7983 102.06 60.435 102.06C58.4525 102.904 47.537 107.951 37.8456 112.507H32.7034C33.3427 112.009 33.8689 111.586 34.1704 111.286C35.3826 110.083 39.8274 96.0437 39.8274 98.0493C39.8274 100.055 37.4029 109.281 38.6151 109.281Z" fill="#032068"/>
<path d="M97.6094 98.8518C99.8722 100.135 103.94 103.13 105.691 104.468L99.2257 96.8462C98.9024 98.1298 98.0134 98.7181 97.6094 98.8518Z" fill="#032068"/>
<path d="M90.0031 82.4581L74.2667 83.5739C73.9795 83.5943 73.7484 83.818 73.7188 84.1044L70.9072 111.317H86.4117L90.6314 83.1373C90.6876 82.762 90.3816 82.4312 90.0031 82.4581Z" fill="white" stroke="#032068" stroke-width="1.18588"/>
<path d="M94.7824 98.852L89.9336 106.072C83.4685 106.473 82.2563 102.863 83.4685 97.2475C84.4382 92.755 88.0479 92.7015 89.5295 93.2363L90.3376 90.0273C94.7824 93.6374 94.7824 97.1138 94.7824 98.852Z" fill="#EFCB96"/>
<path d="M66.4987 98.0495C65.5289 100.617 63.6702 102.328 62.8621 102.863L68.115 110.885C68.8 110.205 69.4578 110.136 70.4418 109.758L71.7516 94.8406L72.1557 90.4282C69.3272 91.6316 67.7109 94.8406 66.4987 98.0495Z" fill="#EFCB96"/>
<path d="M129.793 186.902C129.791 189.285 129.089 192.01 129.087 192.35L135.73 197.111C136.197 196.544 137.481 195.067 138.881 193.704C140.631 192 143.434 186.21 143.787 182.804C144.139 179.399 139.594 177.701 137.494 178.724C136.654 179.542 134.343 183.153 133.292 184.856C133.176 183.721 132.665 181.52 131.546 181.793C130.146 182.135 129.794 184.519 129.793 186.902Z" fill="#EFCB96"/>
<path d="M45.4321 183.839L46.8364 192.846C47.8054 195.936 51.3491 201.652 57.7718 199.799C64.1946 197.945 64.4836 192.291 63.8253 189.695L61.259 182.225C62.3305 181.092 64.3804 177.382 64.0081 171.604C63.5427 164.381 59.8145 158.448 55.3135 157.961C50.8125 157.475 42.4641 158.895 40.5848 168.289C39.0814 175.803 43.1899 181.786 45.4321 183.839Z" fill="#EFCB96"/>
<path d="M46.0437 181.134L46.1819 187.152C43.7888 187.214 43.1418 185.123 36.3252 175.062C30.8719 167.014 36.4383 162.615 39.9031 161.422C41.448 159.174 46.558 154.025 54.6399 151.408C64.7421 148.137 68.8317 156.762 64.761 161.985C61.5045 166.164 53.0932 166.602 49.2946 166.298C48.9004 166.509 48.1312 167.773 48.2086 171.143C48.3054 175.356 48.6461 177.153 47.1088 175.386C45.5715 173.62 42.2256 171.297 42.0232 175.518C41.8613 178.894 44.6361 180.669 46.0437 181.134Z" fill="#032068"/>
<path d="M52.8542 183.312C56.8725 184.481 60.3215 182.59 61.5437 181.498L62.5591 184.971C58.3733 187.369 54.3451 184.864 52.8542 183.312Z" fill="#032068"/>
<path d="M55.9136 196.021C61.904 194.89 63.8387 190.781 64.0573 188.867C91.5217 187.405 95.7785 195.988 106.621 209.177C109.754 204.41 124.533 191.144 126.406 190.099C128.747 188.793 138.774 194.551 139.965 198.646C141.157 202.741 127.669 234.634 123.263 241.062C118.994 247.29 109.855 246.166 106.978 246.133L18.1003 246.207C17.5376 234.744 17.9411 223.141 20.564 215.473C23.9108 205.688 38.6975 194.519 46.1691 192.244C46.9213 193.974 49.9231 197.152 55.9136 196.021Z" fill="#F4AD5E"/>
<path d="M107.222 246.18C103.118 234.804 98.2142 222.917 95.7544 217.223C97.6004 221.832 101.553 235.067 104.756 246.182L107.222 246.18Z" fill="#032068"/>
<path d="M39.9514 230.608L40.7265 246.185H44.2143L39.9514 230.608Z" fill="#032068"/>
<path d="M123.27 240.733C114.744 238.396 107.769 242.68 106.219 245.795C106.865 246.055 111.663 246.182 114.744 245.795C120.945 245.017 122.624 242.291 123.27 240.733Z" fill="#032068"/>
<path d="M219.567 189.186L217.473 196.853C216.426 200.686 219.567 205.216 228.293 205.216C235.274 205.216 236.321 198.711 235.972 195.459L234.227 186.747C235.972 185.004 237.368 183.959 237.368 175.595C237.368 165.141 231.783 161.308 225.152 161.308C218.52 161.308 212.936 166.877 212.936 176.989C212.935 185.701 217.589 188.489 219.567 189.186Z" fill="#EFCB96"/>
<path d="M225.851 201.383C232.273 201.383 235.508 197.201 236.322 195.11C242.488 195.11 256.426 196.992 262.848 204.519C267.641 210.137 273.056 229.045 276.938 245.077H172.3L178.034 227.17C190.04 200.407 209.097 194.646 217.125 195.11C217.358 197.201 219.429 201.383 225.851 201.383Z" fill="#F4AD5E"/>
<path d="M202.465 181.868C197.159 187.444 197.462 197.201 198.276 201.383C208.049 195.528 215.379 194.762 217.822 195.11L219.567 189.186C215.728 188.141 213.285 184.656 212.936 176.641C212.657 170.229 215.844 165.838 217.473 164.444C223.058 164.095 225.85 171.065 227.595 173.853C228.991 176.083 230.038 175.711 230.387 175.247C232.132 171.065 235.274 170.717 235.972 175.247C236.53 178.871 233.878 180.706 232.482 181.171L235.972 195.11C242.952 194.831 250.98 197.317 254.121 198.595C255.169 187.444 246.443 183.61 243.651 176.641C240.858 169.671 244.698 166.186 241.905 161.656C239.836 158.298 235.972 157.823 233.529 157.126C231.085 156.429 229.689 153.641 226.897 152.247C222.011 150.505 217.357 154.803 216.077 157.823C215.263 157.707 212.936 158.032 210.144 160.262C202.116 165.838 209.096 174.898 202.465 181.868Z" fill="#032068"/>
<path d="M190.038 245.469C190.932 241.476 191.725 237.796 192.343 234.837L192.415 245.469H190.038Z" fill="#032068"/>
<path d="M253.075 235.185C253.334 237.905 252.892 241.519 253.264 245.469H255.549C254.927 241.628 253.558 238.081 253.075 235.185Z" fill="#032068"/>
<path d="M226.898 188.837C222.709 189.953 220.266 189.534 219.568 189.186L218.521 193.019C222.989 193.577 225.967 190.464 226.898 188.837Z" fill="#032068"/>
<path d="M137.147 34.3975C137.147 33.5111 136.428 32.7925 135.541 32.7925H91.1011H86.3294C84.9103 32.7925 84.1883 34.4968 85.1763 35.5148L90.648 41.153C90.9386 41.4524 91.1011 41.8532 91.1011 42.2703V56.8672C91.1011 57.7536 91.8203 58.4722 92.7074 58.4722H135.541C136.428 58.4722 137.147 57.7536 137.147 56.8672V34.3975Z" fill="white"/>
<path fill-rule="evenodd" clip-rule="evenodd" d="M137.683 34.3973C137.683 33.2154 136.724 32.2573 135.541 32.2573H86.3291C84.4369 32.2573 83.4744 34.5297 84.7916 35.887L90.2633 41.5252C90.4571 41.7249 90.5654 41.992 90.5654 42.2701V56.8671C90.5654 58.0489 91.5243 59.007 92.7071 59.007H135.541C136.724 59.007 137.683 58.0489 137.683 56.8671V34.3973ZM135.541 33.3273C136.132 33.3273 136.612 33.8064 136.612 34.3973V56.8671C136.612 57.458 136.132 57.9371 135.541 57.9371H92.7071C92.1157 57.9371 91.6363 57.458 91.6363 56.8671V42.2701C91.6363 41.714 91.4196 41.1796 91.0321 40.7804L85.5604 35.1422C84.9017 34.4635 85.383 33.3273 86.3291 33.3273H135.541Z" fill="#032068"/>
<path d="M124.297 45.3645C124.297 46.6941 125.376 47.772 126.706 47.772C128.037 47.772 129.116 46.6941 129.116 45.3645C129.116 44.0349 128.037 42.957 126.706 42.957C125.376 42.957 124.297 44.0349 124.297 45.3645Z" fill="#F4AD5E"/>
<path d="M111.447 45.3645C111.447 46.6941 112.526 47.772 113.856 47.772C115.187 47.772 116.266 46.6941 116.266 45.3645C116.266 44.0349 115.187 42.957 113.856 42.957C112.526 42.957 111.447 44.0349 111.447 45.3645Z" fill="#F4AD5E"/>
<path d="M98.5967 45.3645C98.5967 46.6941 99.6754 47.772 101.006 47.772C102.337 47.772 103.416 46.6941 103.416 45.3645C103.416 44.0349 102.337 42.957 101.006 42.957C99.6754 42.957 98.5967 44.0349 98.5967 45.3645Z" fill="#F4AD5E"/>
<path d="M190.414 104.837H147.104C146.135 104.837 145.349 104.047 145.349 103.072V80.3336C145.349 79.3588 146.135 78.5687 147.104 78.5687H168.759H179.928C180.278 78.5687 180.62 78.4636 180.91 78.267L189.433 72.4892C190.599 71.6986 192.17 72.5385 192.17 73.9524V78.5687V95.8075V103.072C192.17 104.047 191.384 104.837 190.414 104.837Z" fill="white"/>
<path fill-rule="evenodd" clip-rule="evenodd" d="M144.763 103.073C144.763 104.372 145.811 105.426 147.104 105.426H190.414C191.707 105.426 192.755 104.372 192.755 103.073V73.9525C192.755 72.0673 190.66 70.9474 189.105 72.0015L180.582 77.7793C180.389 77.9104 180.161 77.9804 179.928 77.9804H147.104C145.811 77.9804 144.763 79.034 144.763 80.3337V103.073ZM147.104 104.249C146.458 104.249 145.934 103.722 145.934 103.073V80.3337C145.934 79.6838 146.458 79.157 147.104 79.157H179.928C180.394 79.157 180.85 79.017 181.237 78.7548L189.76 72.977C190.537 72.4499 191.585 73.0099 191.585 73.9525V103.073C191.585 103.722 191.061 104.249 190.414 104.249H147.104Z" fill="#032068"/>
<path d="M158.415 91.9768C158.415 90.6166 157.318 89.5141 155.965 89.5141C154.612 89.5141 153.515 90.6166 153.515 91.9768C153.515 93.3369 154.612 94.4395 155.965 94.4395C157.318 94.4395 158.415 93.3369 158.415 91.9768Z" fill="#F4AD5E"/>
<path d="M171.482 91.9768C171.482 90.6166 170.385 89.5141 169.032 89.5141C167.679 89.5141 166.582 90.6166 166.582 91.9768C166.582 93.3369 167.679 94.4395 169.032 94.4395C170.385 94.4395 171.482 93.3369 171.482 91.9768Z" fill="#F4AD5E"/>
<path d="M184.548 91.9768C184.548 90.6166 183.451 89.5141 182.098 89.5141C180.745 89.5141 179.648 90.6166 179.648 91.9768C179.648 93.3369 180.745 94.4395 182.098 94.4395C183.451 94.4395 184.548 93.3369 184.548 91.9768Z" fill="#F4AD5E"/>
<path d="M144.536 189.514C144.536 188.576 145.287 187.815 146.213 187.815H192.613H197.596C199.077 187.815 199.831 189.619 198.8 190.697L193.087 196.667C192.783 196.984 192.613 197.409 192.613 197.85V213.306C192.613 214.244 191.863 215.005 190.936 215.005H146.213C145.287 215.005 144.536 214.244 144.536 213.306V189.514Z" fill="white"/>
<path fill-rule="evenodd" clip-rule="evenodd" d="M143.977 189.514C143.977 188.263 144.978 187.249 146.213 187.249H197.596C199.571 187.249 200.576 189.655 199.201 191.092L193.488 197.062C193.286 197.273 193.172 197.556 193.172 197.85V213.306C193.172 214.557 192.171 215.572 190.936 215.572H146.213C144.978 215.572 143.977 214.557 143.977 213.306V189.514ZM146.213 188.381C145.595 188.381 145.095 188.889 145.095 189.514V213.306C145.095 213.932 145.595 214.439 146.213 214.439H190.936C191.554 214.439 192.054 213.932 192.054 213.306V197.85C192.054 197.261 192.281 196.696 192.685 196.273L198.398 190.303C199.086 189.584 198.583 188.381 197.596 188.381H146.213Z" fill="#032068"/>
<path d="M157.953 201.127C157.953 202.535 156.826 203.676 155.437 203.676C154.048 203.676 152.921 202.535 152.921 201.127C152.921 199.719 154.048 198.578 155.437 198.578C156.826 198.578 157.953 199.719 157.953 201.127Z" fill="#F4AD5E"/>
<path d="M171.37 201.127C171.37 202.535 170.243 203.676 168.854 203.676C167.465 203.676 166.338 202.535 166.338 201.127C166.338 199.719 167.465 198.578 168.854 198.578C170.243 198.578 171.37 199.719 171.37 201.127Z" fill="#F4AD5E"/>
<path d="M184.787 201.127C184.787 202.535 183.66 203.676 182.271 203.676C180.882 203.676 179.755 202.535 179.755 201.127C179.755 199.719 180.882 198.578 182.271 198.578C183.66 198.578 184.787 199.719 184.787 201.127Z" fill="#F4AD5E"/>
<path d="M127.706 179.599C127.706 180.486 126.986 181.206 126.097 181.206H81.6581H76.8909C75.4699 181.206 74.7471 179.499 75.7363 178.48L81.2044 172.846C81.4953 172.546 81.6581 172.145 81.6581 171.727V157.134C81.6581 156.247 82.3781 155.527 83.2663 155.527H126.097C126.986 155.527 127.706 156.247 127.706 157.134V179.599Z" fill="white"/>
<path fill-rule="evenodd" clip-rule="evenodd" d="M128.242 179.599C128.242 180.782 127.282 181.741 126.097 181.741H76.8909C74.9963 181.741 74.0326 179.466 75.3515 178.107L80.8195 172.473C81.0135 172.273 81.122 172.006 81.122 171.727V157.134C81.122 155.951 82.0821 154.991 83.2664 154.991H126.097C127.282 154.991 128.242 155.951 128.242 157.134V179.599ZM126.097 180.67C126.689 180.67 127.17 180.19 127.17 179.599V157.134C127.17 156.542 126.689 156.063 126.097 156.063H83.2664C82.6742 156.063 82.1942 156.542 82.1942 157.134V171.727C82.1942 172.284 81.9772 172.819 81.5893 173.219L76.1212 178.853C75.4617 179.532 75.9436 180.67 76.8909 180.67H126.097Z" fill="#032068"/>
<path d="M114.855 168.634C114.855 167.305 115.934 166.227 117.265 166.227C118.596 166.227 119.674 167.305 119.674 168.634C119.674 169.964 118.596 171.042 117.265 171.042C115.934 171.042 114.855 169.964 114.855 168.634Z" fill="#F4AD5E"/>
<path d="M102.004 168.634C102.004 167.305 103.083 166.227 104.414 166.227C105.744 166.227 106.823 167.305 106.823 168.634C106.823 169.964 105.744 171.042 104.414 171.042C103.083 171.042 102.004 169.964 102.004 168.634Z" fill="#F4AD5E"/>
<path d="M89.1537 168.634C89.1537 167.305 90.2325 166.227 91.5632 166.227C92.8939 166.227 93.9727 167.305 93.9727 168.634C93.9727 169.964 92.8939 171.042 91.5632 171.042C90.2325 171.042 89.1537 169.964 89.1537 168.634Z" fill="#F4AD5E"/>
</svg>
